<svg xmlns="http://www.w3.org/2000/svg" width="78" height="44" fill="none" viewBox="0 0 78 44">
  <path fill="#1E1E1C"
    d="M78 0v43.86H0V0h78zM27.643 42.474a.233.233 0 0 0-.199.098c-.03-.06-.092-.098-.175-.098-.083 0-.136.046-.174.098v-.092h-.115v.594h.137v-.327c0-.091.046-.145.121-.145.069 0 .114.046.114.137v.328h.13v-.328c0-.09.046-.144.122-.144.068 0 .115.053.115.144v.328h.13v-.374c0-.136-.077-.22-.206-.22zm.609 0c-.168 0-.282.136-.282.303a.291.291 0 0 0 .181.278.29.29 0 0 0 .116.02.282.282 0 0 0 .236-.107l-.075-.07a.222.222 0 0 1-.161.07.165.165 0 0 1-.167-.145h.427v-.038c0-.167-.092-.311-.275-.311zm1.707 0a.303.303 0 0 0-.223.516.298.298 0 0 0 .215.084.305.305 0 0 0 .288-.185.304.304 0 0 0 0-.234.298.298 0 0 0-.28-.181zm.738.486a.377.377 0 0 0 .275.114c.166 0 .28-.097.28-.258 0-.167-.113-.244-.266-.244a.292.292 0 0 0-.12.023l.014-.175h.343v-.122h-.456l-.024.373.084.054c.045-.015.09-.032.144-.032.091 0 .16.055.16.13 0 .077-.06.13-.152.13-.068 0-.137-.038-.198-.092l-.084.1zm-26.919-.67l-.206.068.03.108.13-.037v.638h.138v-.777h-.092zm.556-.015c-.136 0-.206.06-.281.16l.098.076c.054-.076.107-.114.176-.114.069 0 .121.046.121.123 0 .067-.038.113-.144.204l-.266.23-.002.113h.558v-.12h-.367l.16-.147c.137-.114.199-.175.199-.296 0-.137-.1-.228-.252-.229zm24.977.199a.214.214 0 0 0-.183.098v-.092h-.13v.587h.138v-.328c0-.09.053-.144.129-.144.075 0 .122.053.122.144v.328h.13v-.374c0-.128-.077-.22-.206-.22zm2.91-.184l-.206.068.03.108.138-.038v.64h.13v-.778h-.092zm33.15 0l-.207.068.031.108.13-.036v.637h.138v-.777h-.092zm.435 0l-.206.068.029.108.13-.036v.637h.138v-.777h-.091zm-64.359.77l1.44-.381-1.44-.39v.771zm61.593 0l1.44-.381-1.44-.39v.771zm-37.425-.798a.18.18 0 0 0-.06.036c-.03.03-.045.084-.045.144v.046h-.076v.107h.077l-.001.465h.129v-.465h.152v-.107h-.153v-.03c-.001-.062.022-.092.076-.092.03 0 .053.008.076.017v-.115a.378.378 0 0 0-.107-.016.18.18 0 0 0-.07.01zm.93.212a.475.475 0 0 0-.22.046l.038.106a.382.382 0 0 1 .167-.04c.092 0 .145.047.145.13v.009a.394.394 0 0 0-.152-.024c-.145 0-.244.061-.244.19 0 .122.099.184.198.169a.237.237 0 0 0 .19-.084v.076h.13v-.342c0-.069-.016-.138-.062-.176-.037-.038-.105-.06-.19-.06zm-.31-.008c-.1 0-.169.06-.207.143v-.129h-.137v.572h.137v-.22c0-.153.084-.23.199-.23h.007v-.136zm5.43-.19c-.137 0-.205.06-.282.16l.1.075c.052-.076.105-.114.173-.114.07 0 .123.046.123.123 0 .067-.039.113-.145.204l-.267.23v.098h.557v-.122h-.366l.16-.13c.137-.113.2-.175.2-.296-.001-.137-.1-.228-.253-.229zm-5.12.517a.304.304 0 0 1 .13.023v.038c0 .076-.068.121-.152.13-.068 0-.114-.038-.114-.092 0-.06.054-.099.136-.1zm3.406-.206c.099 0 .175.084.175.19 0 .1-.068.184-.175.177a.18.18 0 0 1-.176-.184c0-.1.07-.183.176-.183zm-1.7-.007c.085 0 .139.069.145.151l.002.001H28.1c.015-.091.068-.152.152-.152zM1.448 2.544v4.22l.778 1.37v27.88l-.778 1.097v4.212h75.114V37.05l-.99-1.035V8.135l.99-1.295V2.544H1.448zm12.683-1.31a.233.233 0 0 0-.197.1c-.031-.062-.092-.1-.176-.1-.084 0-.137.045-.176.1V1.24h-.138l.001.594h.145v-.326c0-.092.046-.147.122-.147.069 0 .114.047.114.138v.328h.145V1.5c0-.092.046-.145.122-.145.068 0 .114.054.114.145v.328h.13v-.374c0-.136-.077-.22-.206-.22zm.61 0c-.168 0-.282.137-.282.304a.289.289 0 0 0 .182.277.29.29 0 0 0 .115.02.279.279 0 0 0 .236-.106l-.076-.069a.22.22 0 0 1-.16.069.164.164 0 0 1-.168-.145h.427v-.038c0-.167-.092-.312-.275-.312zm1.705 0a.302.302 0 0 0-.311.304.297.297 0 0 0 .089.214.294.294 0 0 0 .216.083.304.304 0 0 0 .312-.304.3.3 0 0 0-.306-.297zm.801-.175l-.023.373.084.053a.417.417 0 0 1 .143-.03c.092 0 .16.053.16.129 0 .076-.06.13-.152.13a.315.315 0 0 1-.197-.092l-.084.099h-.001a.406.406 0 0 0 .275.114c.168 0 .282-.098.282-.259 0-.167-.114-.243-.266-.243a.29.29 0 0 0-.121.022l.014-.174h.343v-.122h-.456zM30.4 1.058v.114h.335l-.205.222.023.084h.061c.105 0 .174.045.174.12 0 .07-.053.116-.13.116a.252.252 0 0 1-.204-.1l-.092.092c.07.077.16.129.298.129.16 0 .266-.099.266-.243 0-.138-.114-.198-.229-.213l.214-.222v-.1h-.51zm10.42.176a.232.232 0 0 0-.198.1c-.03-.062-.091-.1-.175-.1-.083 0-.137.045-.175.1V1.24h-.115v.594h.138v-.326c0-.092.046-.147.122-.147.069 0 .114.047.114.138v.328h.13V1.5c0-.091.045-.144.12-.145.07 0 .115.053.116.145v.328h.13v-.374c0-.136-.077-.22-.207-.22zm.603 0c-.168 0-.282.137-.282.304a.289.289 0 0 0 .181.277c.037.015.076.021.115.02a.28.28 0 0 0 .237-.106l-.076-.069a.22.22 0 0 1-.16.069.163.163 0 0 1-.168-.145h.426v-.038c0-.167-.09-.311-.273-.312zm1.705 0a.302.302 0 0 0-.29.42.294.294 0 0 0 .283.18.303.303 0 0 0 .29-.418.303.303 0 0 0-.283-.182zm.807-.175l-.022.373.084.053a.43.43 0 0 1 .145-.03c.091 0 .16.053.16.129 0 .076-.06.13-.153.13a.314.314 0 0 1-.198-.092l-.084.099a.378.378 0 0 0 .275.114c.167 0 .28-.098.28-.259 0-.167-.112-.243-.265-.243a.29.29 0 0 0-.123.022l.016-.174h.344v-.122h-.459zM4.015 1.05l-.427.502.023.098H4v.177h.13v-.175h.105v-.115H4.13v-.487h-.115zm11.784.183a.214.214 0 0 0-.183.1V1.24h-.13v.587h.137V1.5c0-.092.053-.145.13-.145.075 0 .12.054.121.145v.328h.13v-.374c0-.128-.076-.22-.205-.22zm2.91-.183l-.207.068.03.108.131-.038v.64h.138v-.78h-.092zm11.325 0l-.427.502.024.098h.388v.177h.13v-.175h.106v-.115h-.107v-.487h-.115zm12.455.183a.212.212 0 0 0-.183.1V1.24h-.13v.587h.137V1.5c0-.092.054-.144.13-.145.076 0 .122.053.122.145v.328h.13v-.374c0-.128-.077-.22-.206-.22zm2.911-.183l-.206.068.029.108.137-.039h.001v.64h.13v-.777h-.09zm-33.296-.027a.178.178 0 0 0-.06.036c-.032.03-.047.083-.047.144v.037h-.076v.115h.076v.466h.13v-.464h.152V1.25h-.152v-.03c0-.061.023-.09.075-.091a.22.22 0 0 1 .077.015v-.115c-.03-.007-.06-.015-.106-.015a.18.18 0 0 0-.07.01zM1.447 1.82l1.44-.38-1.44-.39v.77zm3.2-.777c-.138 0-.206.062-.283.16l.099.077c.054-.077.107-.115.176-.115.068 0 .122.046.122.122 0 .068-.038.114-.145.205l-.266.229v.1h.556v-.122H4.54l.16-.13c.138-.113.198-.175.198-.297 0-.137-.098-.23-.25-.23zm8.386.19a.477.477 0 0 0-.22.046l.038.106a.383.383 0 0 1 .167-.038c.091 0 .144.046.144.13v.014a.408.408 0 0 0-.152-.022c-.145 0-.243.062-.243.19 0 .115.098.175.197.16a.24.24 0 0 0 .105-.02.239.239 0 0 0 .085-.064v.077h.13V1.47c0-.068-.015-.137-.06-.175-.038-.04-.107-.062-.19-.062zm5.12-.19c-.138 0-.207.062-.283.16l.099.077c.054-.077.107-.115.175-.115.07 0 .122.047.122.122 0 .068-.038.113-.145.205l-.265.229v.1h.555v-.122h-.367l.161-.13c.138-.113.198-.175.198-.297 0-.137-.098-.229-.25-.23zm9.315.777l1.44-.38-1.44-.39v.77zm11.318-.796a.179.179 0 0 0-.06.036c-.031.03-.046.083-.046.144v.037h-.075v.115h.075v.465h.13v-.465h.152V1.25h-.152v-.03c0-.061.023-.091.076-.091.026 0 .052.006.076.016v-.115c-.031-.007-.06-.015-.107-.015a.18.18 0 0 0-.069.01zm.93.21a.477.477 0 0 0-.22.045l.037.107a.386.386 0 0 1 .168-.038c.092 0 .145.046.145.13v.014a.412.412 0 0 0-.154-.022c-.144 0-.243.062-.243.19 0 .114.1.175.198.16a.24.24 0 0 0 .105-.02.238.238 0 0 0 .085-.064v.077h.13V1.47c0-.068-.015-.137-.06-.175-.039-.04-.107-.062-.191-.062zm5.126-.191c-.137 0-.206.062-.282.16l.1.077c.052-.077.106-.115.175-.115.069 0 .122.046.122.122 0 .068-.038.114-.145.205l-.267.229v.098h.557v-.123h-.367l.16-.128c.137-.113.2-.175.2-.297 0-.137-.1-.23-.253-.23zm-32.121.184c-.098 0-.167.06-.204.144v-.13h-.138v.571h.138v-.22c0-.153.082-.228.197-.228h.008v-.137zm26.683 0c-.098 0-.167.06-.205.144v-.13h-.138v.571h.138v-.22c0-.152.083-.228.197-.228h.008v-.137zm-26.37.326a.303.303 0 0 1 .13.023v.04c0 .075-.07.121-.153.13-.069 0-.114-.04-.114-.093 0-.06.053-.1.137-.1zm26.683 0a.306.306 0 0 1 .13.023v.04c0 .075-.062.121-.154.13-.068-.001-.114-.04-.114-.093 0-.06.054-.1.138-.1zm-23.277-.205c.098 0 .174.083.174.19 0 .1-.068.184-.175.176a.179.179 0 0 1-.175-.183c0-.1.069-.183.175-.183zm26.689 0c.099 0 .176.083.176.19 0 .1-.07.184-.176.176a.178.178 0 0 1-.174-.183c0-.1.068-.183.174-.183zm-39.129.19h-.253L4 1.234v.304zm26.019 0h-.251l.25-.304v.304zm-15.28-.197c.084 0 .137.068.145.151h-.297c.015-.09.069-.15.152-.151zm26.69 0c.084 0 .138.068.146.151h-.298c.015-.09.069-.151.153-.151z" />
</svg>